<svg xmlns="http://www.w3.org/2000/svg" class="checkmark-icon lists__checkmark-icon" data-name="Layer 1" viewBox="0 0 623 683"><defs><style>.cls-1{fill:none}</style></defs><g data-name="Group 11"><g data-name="Ellipse 16"><path d="M584.21 369.75c-.09-2.33-.21-4.64-.35-6.95q-.45-6.93-1.23-13.78A272.31 272.31 0 0 0 343 109.37q-6.84-.78-13.78-1.23c-2.31-.14-4.62-.26-6.95-.35-3.49-.13-7-.2-10.54-.2s-7 .07-10.54.2q-3.48.13-6.95.35-6.95.45-13.78 1.23l-3.42.41C154.13 125.39 56.8 222.72 41.19 345.56c-.14 1.14-.28 2.28-.41 3.42q-.78 6.84-1.23 13.78-.21 3.46-.35 6.95-.2 5.29-.2 10.58c0 3.53.07 7 .2 10.54.09 2.33.21 4.64.35 6.95q.45 6.93 1.23 13.78C56.28 547.45 171.66 653 311.71 653s255.42-105.55 270.92-241.44q.78-6.84 1.23-13.78c.14-2.31.26-4.62.35-6.95.13-3.49.2-7 .2-10.54s-.07-7.04-.2-10.54ZM529.26 216c-9 22.17-16.69 39.88-24.67 57.23-.43.91-.87 1.81-1.31 2.72a219.22 219.22 0 0 0-124.91-103.4c3.17-8 10.39-26.21 18.85-51.22A273.72 273.72 0 0 1 529.26 216Z" class="cls-1"/><path d="M584.21 369.75q-.13-3.48-.35-6.95-.45-6.93-1.23-13.78a271.38 271.38 0 0 0-53.37-133c-9 22.17-16.69 39.88-24.67 57.23-.43.91-.87 1.81-1.31 2.72a216.79 216.79 0 0 1 26.59 104.3c0 120.29-97.87 218.16-218.16 218.16S93.54 500.58 93.54 380.29s97.87-218.16 218.17-218.16a217.08 217.08 0 0 1 66.66 10.42c3.17-8 10.39-26.21 18.85-51.22a270.33 270.33 0 0 0-54.24-12q-6.84-.78-13.78-1.23c-2.31-.14-4.62-.26-6.95-.35-3.49-.13-7-.2-10.54-.2s-7 .07-10.54.2q-3.48.13-6.95.35-6.95.45-13.78 1.23l-3.42.41C154.32 125.45 56.86 222.91 41.19 345.56c-.14 1.14-.28 2.28-.41 3.42q-.78 6.84-1.23 13.78-.21 3.46-.35 6.95-.2 5.29-.2 10.58c0 3.53.07 7 .2 10.54.09 2.33.21 4.64.35 6.95q.45 6.93 1.23 13.78C56.34 547.25 171.9 653 311.71 653s255.36-105.75 270.92-241.44q.78-6.84 1.23-13.78c.14-2.31.26-4.62.35-6.95.13-3.49.2-7 .2-10.54s-.07-7.04-.2-10.54Z"/></g><path d="M300.2 516.8a27.28 27.28 0 0 1-20.36-9.14 605.52 605.52 0 0 1-70.08-96.24 250.44 250.44 0 0 1-29.4-91.91 27.27 27.27 0 0 1 54.17-6.28 195.25 195.25 0 0 0 22.69 71.34 546.63 546.63 0 0 0 39.55 58.22c37.4-62.48 72.11-127.14 103.46-192.72 9.32-20.27 18-40.61 29.67-69.89a1332.5 1332.5 0 0 0 45.83-136.25A27.28 27.28 0 1 1 528.3 58.5a1393.77 1393.77 0 0 1-47.72 141.88c-11.93 29.84-21.2 51.61-31 72.85a2390.62 2390.62 0 0 1-126.21 230.68 27.25 27.25 0 0 1-20.82 12.78 23.37 23.37 0 0 1-2.35.11Z"/><path d="M529.26 216c-9 22.17-16.69 39.88-24.67 57.23-.43.91-.87 1.81-1.31 2.72a219.22 219.22 0 0 0-124.91-103.4c3.17-8 10.39-26.21 18.85-51.22A273.72 273.72 0 0 1 529.26 216Z" class="cls-1"/><path d="M503.28 276a2388 2388 0 0 1-124.93 228 27.22 27.22 0 0 1-7.17 7.71 29 29 0 0 1-16 5.18s-9.88-.05-20.36-9.14c-24.08-20.86-38.89-118.92-22.63-123.09 5.69-1.46 16.6 8.22 39.55 58.22C357.35 264.67 367.79 200 377 176c.3-.77.76-1.92 1.37-3.45A219.22 219.22 0 0 1 503.28 276ZM583.28 58.54a1393.77 1393.77 0 0 1-47.72 141.88q-3.24 8.12-6.25 15.48a.78.78 0 0 1 0 .14 273.72 273.72 0 0 0-132-94.71.14.14 0 0 1 0-.06q.87-2.58 1.76-5.27c10.8-32.54 8.66-31.53 12-36 23.86-31.9 72-1.8 119.71-36 14.07-10.08 22.84-22 33.59-19a27.27 27.27 0 0 1 18.91 33.54Z" class="cls-1"/></g><path d="m455.56 339.24-1.46 4 4.26 4.23-.26-4.64ZM408.2 86l-39.73 109.61 116 115.47-7-126.54Z" class="cls-1" data-name="Path 91"/></svg>