<svg width="120" height="80" viewBox="0 0 120 80" fill="none" xmlns="http://www.w3.org/2000/svg">
<path d="M120 0H0V80H120V0Z" fill="#00AE41"/>
<path d="M105.828 30.5019C105.005 24.1132 100.367 20.5074 94.1339 20.5074C83.8821 20.5074 79.965 30.5019 79.965 39.3622C79.965 48.4798 82.9004 58.0104 93.8257 58.0104C101.349 58.0104 106.447 52.1904 106.447 44.8232C106.447 41.9386 105.571 39.0032 103.664 36.7857C101.603 34.5206 98.4608 33.0752 95.3697 33.0752C91.8656 33.0752 89.2383 34.2093 87.2305 37.0939L87.1289 36.9922C87.2845 33.0243 88.7776 26.0193 94.0322 26.0193C96.5578 26.0193 98.4131 28.0811 98.8769 30.5019H105.828ZM93.616 38.587C97.3774 38.587 99.1279 41.9863 99.1279 45.3887C99.1279 48.6863 97.1201 51.9839 93.616 51.9839C89.9086 51.9839 87.796 48.6355 87.796 45.2871C87.796 41.7321 89.7021 38.587 93.616 38.587ZM76.1528 30.5019C75.33 24.1132 70.6917 20.5074 64.4587 20.5074C54.2069 20.5074 50.2898 30.5019 50.2898 39.3622C50.2898 48.4798 53.2253 58.0104 64.1474 58.0104C71.6702 58.0104 76.7691 52.1904 76.7691 44.8232C76.7691 41.9386 75.8923 39.0032 73.9861 36.7857C71.9243 34.5206 68.7824 33.0752 65.6913 33.0752C62.1872 33.0752 59.56 34.2093 57.5522 37.0939L57.4473 36.9922C57.603 33.0243 59.0961 26.0193 64.3507 26.0193C66.8763 26.0193 68.7284 28.0811 69.1922 30.5019H76.1528ZM63.9409 38.587C67.7023 38.587 69.4559 41.9863 69.4559 45.3887C69.4559 48.6863 67.445 51.9839 63.9409 51.9839C60.2303 51.9839 58.1177 48.6355 58.1177 45.2871C58.1177 41.7321 60.027 38.587 63.9409 38.587ZM13.5557 57.2893H29.4241C40.6576 57.2893 46.1154 49.3534 46.1154 38.6919C46.1154 26.534 38.9548 20.5043 29.4241 20.5043H13.5557V57.2893ZM21.644 27.306H27.4132C35.3998 27.306 38.0271 32.0458 38.0271 39.4638C38.0271 47.603 33.5445 50.4876 28.8587 50.4876H21.644V27.306Z" fill="white"/>
</svg>
